# xmcd
#
# Track frame offsets:
#   150
#   17810
#   30117
#   44095
#   56535
#   77140
#   91542
#   104930
#   124682
#   137767
#
# Disc length: 2056 seconds
#
# Revision: 0
# Processed by: cddbd v1.5.2PL0 Copyright (c) Steve Scherf et al.
# Submitted via: GXTranscoder 2.0.1939
#
DISCID=7d08060a
DTITLE=Fernando Vega - Traspasando Fronteras
DYEAR=1900
DGENRE=Country
TTITLE0=Mas alla de las fronteras
TTITLE1=La fe de pedro
TTITLE2=Como la niña de mis ojos
TTITLE3=Libertad
TTITLE4=Cuantas Veces
TTITLE5=Valle tenebrozo
TTITLE6=Vas a morir
TTITLE7=Salvo Soy
TTITLE8=Lleno de Gozo
TTITLE9=Un sueño
EXTD=
EXTT0=
EXTT1=
EXTT2=
EXTT3=
EXTT4=
EXTT5=
EXTT6=
EXTT7=
EXTT8=
EXTT9=
PLAYORDER=
